<svg width="9117" height="5849" viewBox="0 0 9117 5849" fill="none" xmlns="http://www.w3.org/2000/svg">
<path d="M48.3398 2740V639.414H591.797C721.68 639.414 834.473 669.199 930.176 728.77C1025.88 787.363 1073.73 881.602 1073.73 1011.48V1302.99C1073.73 1450.45 983.887 1554.45 804.199 1615C993.652 1661.88 1088.38 1762.95 1088.38 1918.22V2325.45C1088.38 2464.12 1042.97 2568.12 952.148 2637.46C862.305 2705.82 754.883 2740 629.883 2740H48.3398ZM638.672 1377.7V1020.27C638.672 947.031 595.703 910.41 509.766 910.41V1489.02C595.703 1489.02 638.672 1451.91 638.672 1377.7ZM638.672 2359.14V1827.4C638.672 1754.16 595.703 1717.54 509.766 1717.54V2470.47C595.703 2470.47 638.672 2433.36 638.672 2359.14ZM2434.57 2740H1977.54L1899.9 2176.04H1693.36L1615.72 2740H1158.69L1504.39 639.414H2088.87L2434.57 2740ZM1861.82 1884.53L1795.9 1257.58L1732.91 1884.53H1861.82ZM2507.81 1899.18H2928.22V2381.11C2928.22 2428.96 2957.03 2452.89 3014.65 2452.89C3070.31 2452.89 3098.14 2428.96 3098.14 2381.11V2132.09C3098.14 2055.92 3047.36 1966.56 2945.8 1864.02C2749.51 1673.59 2627.44 1545.66 2579.59 1480.23C2531.74 1414.8 2507.81 1343.03 2507.81 1264.9V1029.06C2507.81 756.602 2685.55 620.371 3041.02 620.371C3359.38 620.371 3518.55 744.395 3518.55 992.441V1355.72H3098.14V969.004C3098.14 927.012 3075.2 906.016 3029.3 906.016C2975.59 906.016 2948.73 946.543 2948.73 1027.6L2957.52 1163.83C2957.52 1241.95 3009.28 1332.77 3112.79 1436.29C3305.18 1620.86 3427.25 1749.77 3479 1823.01C3531.74 1896.25 3558.11 1979.26 3558.11 2072.03V2340.1C3558.11 2619.39 3379.88 2759.04 3023.44 2759.04C2679.69 2759.04 2507.81 2632.09 2507.81 2378.18V1899.18ZM4560.06 2740H3657.71V639.414H4554.2V910.41H4119.14V1477.3H4511.72V1732.19H4119.14V2470.47H4560.06V2740ZM5809.57 2740H5334.96L5021.48 1620.86V2740H4636.23V639.414H5160.64L5424.32 1597.42V639.414H5809.57V2740ZM5906.25 2381.11V1029.06C5906.25 756.602 6083.01 620.371 6436.52 620.371C6785.16 620.371 6959.47 755.625 6959.47 1026.13V2378.18C6959.47 2500.25 6910.64 2594.49 6812.99 2660.9C6716.31 2726.33 6589.84 2759.04 6433.59 2759.04C6082.03 2759.04 5906.25 2633.07 5906.25 2381.11ZM6508.3 2403.09V971.934C6508.3 929.941 6483.4 908.945 6433.59 908.945C6381.84 908.945 6355.96 929.941 6355.96 971.934V2403.09C6355.96 2445.08 6381.84 2466.07 6433.59 2466.07C6483.4 2466.07 6508.3 2445.08 6508.3 2403.09ZM8018.55 913.34H7760.74V2740H7299.32V913.34H7041.5V639.414H8018.55V913.34ZM9010.25 2740H8107.91V639.414H9004.39V910.41H8569.34V1477.3H8961.91V1732.19H8569.34V2470.47H9010.25V2740Z" fill="white"/>
<path d="M537.595 5170.12C440.253 5170.12 359.134 5150.21 294.239 5110.39C230.819 5069.09 182.886 5012.31 150.438 4940.04C117.991 4866.3 98.0798 4780.75 90.7054 4683.41L238.931 4639.16C246.306 4712.91 259.58 4780.02 278.753 4840.49C297.927 4899.48 328.162 4946.68 369.459 4982.08C410.755 5016 467.538 5032.96 539.808 5032.96C619.452 5032.96 681.397 5012.31 725.643 4971.01C769.89 4929.72 792.013 4864.08 792.013 4774.12C792.013 4694.47 772.102 4625.89 732.28 4568.37C693.933 4510.85 640.837 4450.38 572.993 4386.96L256.63 4083.87C200.584 4029.3 159.288 3973.25 132.74 3915.73C106.192 3856.74 92.9177 3792.58 92.9177 3723.26C92.9177 3599.37 129.79 3504.24 203.534 3437.87C277.278 3371.5 375.358 3338.32 497.774 3338.32C561.194 3338.32 617.977 3346.43 668.123 3362.65C719.744 3378.88 763.253 3405.42 798.65 3442.3C835.522 3477.69 864.282 3524.15 884.931 3581.67C905.579 3639.19 919.591 3709.25 926.965 3791.84L783.164 3829.45C777.264 3754.23 764.728 3690.08 745.554 3636.98C727.856 3582.41 699.095 3541.11 659.273 3513.09C620.926 3485.07 567.093 3471.06 497.774 3471.06C424.029 3471.06 363.559 3490.23 316.363 3528.58C269.166 3566.92 245.568 3626.66 245.568 3707.78C245.568 3756.45 254.418 3800.69 272.116 3840.51C291.29 3880.34 324.475 3923.11 371.671 3968.83L688.034 4267.49C758.828 4333.86 820.036 4407.61 871.657 4488.73C923.278 4569.85 949.088 4661.29 949.088 4763.06C949.088 4853.02 931.39 4928.24 895.992 4988.71C862.07 5049.18 814.136 5094.9 752.191 5125.88C690.246 5155.37 618.714 5170.12 537.595 5170.12ZM1599.43 5170.12C1479.96 5170.12 1386.31 5147.26 1318.46 5101.54C1252.09 5054.34 1204.89 4989.45 1176.87 4906.86C1150.32 4822.79 1137.05 4726.92 1137.05 4619.25V3875.91C1137.05 3766.77 1151.06 3672.38 1179.08 3592.73C1208.58 3511.62 1256.52 3448.93 1322.89 3404.69C1390.73 3360.44 1482.91 3338.32 1599.43 3338.32C1714.47 3338.32 1805.17 3360.44 1871.54 3404.69C1939.39 3448.93 1987.32 3511.62 2015.34 3592.73C2043.37 3672.38 2057.38 3766.77 2057.38 3875.91V4621.47C2057.38 4729.13 2043.37 4824.26 2015.34 4906.86C1988.8 4987.98 1942.34 5052.13 1875.97 5099.33C1809.6 5146.53 1717.42 5170.12 1599.43 5170.12ZM1599.43 5035.17C1677.59 5035.17 1737.33 5019.69 1778.62 4988.71C1819.92 4956.26 1847.94 4912.02 1862.69 4855.97C1878.92 4798.45 1887.03 4732.08 1887.03 4656.86V3844.94C1887.03 3769.72 1878.92 3704.09 1862.69 3648.04C1847.94 3592 1819.92 3549.23 1778.62 3519.73C1737.33 3488.75 1677.59 3473.27 1599.43 3473.27C1519.78 3473.27 1458.57 3488.75 1415.8 3519.73C1374.51 3549.23 1345.75 3592 1329.52 3648.04C1314.77 3704.09 1307.4 3769.72 1307.4 3844.94V4656.86C1307.4 4732.08 1314.77 4798.45 1329.52 4855.97C1345.75 4912.02 1374.51 4956.26 1415.8 4988.71C1458.57 5019.69 1519.78 5035.17 1599.43 5035.17ZM2337 5148V3356.02H2505.13V5021.9H3013.97V5148H2337ZM3606.82 5170.12C3485.88 5170.12 3391.49 5148.74 3323.64 5105.97C3257.27 5061.72 3211.55 5001.25 3186.48 4924.55C3161.4 4846.39 3148.87 4757.89 3148.87 4659.08V3356.02H3312.58V4663.5C3312.58 4732.82 3319.95 4796.24 3334.7 4853.76C3350.93 4909.81 3380.42 4954.05 3423.2 4986.5C3465.97 5018.95 3527.18 5035.17 3606.82 5035.17C3683.51 5035.17 3743.25 5018.95 3786.02 4986.5C3828.79 4952.58 3858.29 4907.59 3874.51 4851.55C3892.21 4795.5 3901.06 4732.82 3901.06 4663.5V3356.02H4062.56V4659.08C4062.56 4757.89 4049.28 4846.39 4022.74 4924.55C3996.19 5001.25 3949.73 5061.72 3883.36 5105.97C3816.99 5148.74 3724.81 5170.12 3606.82 5170.12ZM4578.27 5148V3486.54H4239.79V3356.02H5076.05V3486.54H4746.41V5148H4578.27ZM5277.51 5148V3356.02H5445.64V5148H5277.51ZM6188.28 5170.12C6068.81 5170.12 5975.16 5147.26 5907.31 5101.54C5840.94 5054.34 5793.74 4989.45 5765.72 4906.86C5739.17 4822.79 5725.9 4726.92 5725.9 4619.25V3875.91C5725.9 3766.77 5739.91 3672.38 5767.93 3592.73C5797.43 3511.62 5845.37 3448.93 5911.74 3404.69C5979.58 3360.44 6071.76 3338.32 6188.28 3338.32C6303.32 3338.32 6394.02 3360.44 6460.39 3404.69C6528.24 3448.93 6576.17 3511.62 6604.19 3592.73C6632.22 3672.38 6646.23 3766.77 6646.23 3875.91V4621.47C6646.23 4729.13 6632.22 4824.26 6604.19 4906.86C6577.65 4987.98 6531.19 5052.13 6464.82 5099.33C6398.45 5146.53 6306.27 5170.12 6188.28 5170.12ZM6188.28 5035.17C6266.44 5035.17 6326.18 5019.69 6367.47 4988.71C6408.77 4956.26 6436.79 4912.02 6451.54 4855.97C6467.77 4798.45 6475.88 4732.08 6475.88 4656.86V3844.94C6475.88 3769.72 6467.77 3704.09 6451.54 3648.04C6436.79 3592 6408.77 3549.23 6367.47 3519.73C6326.18 3488.75 6266.44 3473.27 6188.28 3473.27C6108.63 3473.27 6047.42 3488.75 6004.65 3519.73C5963.36 3549.23 5934.6 3592 5918.37 3648.04C5903.62 3704.09 5896.25 3769.72 5896.25 3844.94V4656.86C5896.25 4732.08 5903.62 4798.45 5918.37 4855.97C5934.6 4912.02 5963.36 4956.26 6004.65 4988.71C6047.42 5019.69 6108.63 5035.17 6188.28 5035.17ZM6925.84 5148V3356.02H7047.52L7618.3 4747.57V3356.02H7764.32V5148H7644.85L7071.86 3740.96V5148H6925.84ZM8455.74 5170.12C8358.4 5170.12 8277.28 5150.21 8212.38 5110.39C8148.96 5069.09 8101.03 5012.31 8068.58 4940.04C8036.13 4866.3 8016.22 4780.75 8008.85 4683.41L8157.07 4639.16C8164.45 4712.91 8177.72 4780.02 8196.9 4840.49C8216.07 4899.48 8246.3 4946.68 8287.6 4982.08C8328.9 5016 8385.68 5032.96 8457.95 5032.96C8537.59 5032.96 8599.54 5012.31 8643.79 4971.01C8688.03 4929.72 8710.16 4864.08 8710.16 4774.12C8710.16 4694.47 8690.24 4625.89 8650.42 4568.37C8612.08 4510.85 8558.98 4450.38 8491.14 4386.96L8174.77 4083.87C8118.73 4029.3 8077.43 3973.25 8050.88 3915.73C8024.33 3856.74 8011.06 3792.58 8011.06 3723.26C8011.06 3599.37 8047.93 3504.24 8121.68 3437.87C8195.42 3371.5 8293.5 3338.32 8415.92 3338.32C8479.34 3338.32 8536.12 3346.43 8586.27 3362.65C8637.89 3378.88 8681.4 3405.42 8716.79 3442.3C8753.66 3477.69 8782.42 3524.15 8803.07 3581.67C8823.72 3639.19 8837.73 3709.25 8845.11 3791.84L8701.31 3829.45C8695.41 3754.23 8682.87 3690.08 8663.7 3636.98C8646 3582.41 8617.24 3541.11 8577.42 3513.09C8539.07 3485.07 8485.24 3471.06 8415.92 3471.06C8342.17 3471.06 8281.7 3490.23 8234.51 3528.58C8187.31 3566.92 8163.71 3626.66 8163.71 3707.78C8163.71 3756.45 8172.56 3800.69 8190.26 3840.51C8209.43 3880.34 8242.62 3923.11 8289.81 3968.83L8606.18 4267.49C8676.97 4333.86 8738.18 4407.61 8789.8 4488.73C8841.42 4569.85 8867.23 4661.29 8867.23 4763.06C8867.23 4853.02 8849.53 4928.24 8814.14 4988.71C8780.21 5049.18 8732.28 5094.9 8670.33 5125.88C8608.39 5155.37 8536.86 5170.12 8455.74 5170.12Z" fill="white"/>
</svg>
