<svg width="13378" height="5849" viewBox="0 0 13378 5849" fill="none" xmlns="http://www.w3.org/2000/svg">
<path d="M3709.28 3626.33L1963.19 656L0 3991.31L1963.19 5148L3926.37 3991.31L1963.19 2834.62L829.067 3502.81L1963.19 1545.04M881.469 3991.31L1961.31 3311.9L3041.16 3991.31L1961.31 4670.73L881.469 3991.31Z" fill="white"/>
<path d="M4309.34 2740V639.414H4852.8C4982.68 639.414 5095.47 669.199 5191.18 728.77C5286.88 787.363 5334.73 881.602 5334.73 1011.48V1302.99C5334.73 1450.45 5244.89 1554.45 5065.2 1615C5254.65 1661.88 5349.38 1762.95 5349.38 1918.22V2325.45C5349.38 2464.12 5303.97 2568.12 5213.15 2637.46C5123.3 2705.82 5015.88 2740 4890.88 2740H4309.34ZM4899.67 1377.7V1020.27C4899.67 947.031 4856.7 910.41 4770.77 910.41V1489.02C4856.7 1489.02 4899.67 1451.91 4899.67 1377.7ZM4899.67 2359.14V1827.4C4899.67 1754.16 4856.7 1717.54 4770.77 1717.54V2470.47C4856.7 2470.47 4899.67 2433.36 4899.67 2359.14ZM6695.57 2740H6238.54L6160.9 2176.04H5954.36L5876.72 2740H5419.69L5765.39 639.414H6349.87L6695.57 2740ZM6122.82 1884.53L6056.9 1257.58L5993.91 1884.53H6122.82ZM6768.81 1899.18H7189.22V2381.11C7189.22 2428.96 7218.03 2452.89 7275.65 2452.89C7331.31 2452.89 7359.14 2428.96 7359.14 2381.11V2132.09C7359.14 2055.92 7308.36 1966.56 7206.8 1864.02C7010.51 1673.59 6888.44 1545.66 6840.59 1480.23C6792.74 1414.8 6768.81 1343.03 6768.81 1264.9V1029.06C6768.81 756.602 6946.55 620.371 7302.02 620.371C7620.38 620.371 7779.55 744.395 7779.55 992.441V1355.72H7359.14V969.004C7359.14 927.012 7336.2 906.016 7290.3 906.016C7236.59 906.016 7209.73 946.543 7209.73 1027.6L7218.52 1163.83C7218.52 1241.95 7270.28 1332.77 7373.79 1436.29C7566.18 1620.86 7688.25 1749.77 7740 1823.01C7792.74 1896.25 7819.11 1979.26 7819.11 2072.03V2340.1C7819.11 2619.39 7640.88 2759.04 7284.44 2759.04C6940.69 2759.04 6768.81 2632.09 6768.81 2378.18V1899.18ZM8821.06 2740H7918.71V639.414H8815.2V910.41H8380.14V1477.3H8772.72V1732.19H8380.14V2470.47H8821.06V2740ZM10070.6 2740H9595.96L9282.48 1620.86V2740H8897.23V639.414H9421.64L9685.32 1597.42V639.414H10070.6V2740ZM10167.2 2381.11V1029.06C10167.2 756.602 10344 620.371 10697.5 620.371C11046.2 620.371 11220.5 755.625 11220.5 1026.13V2378.18C11220.5 2500.25 11171.6 2594.49 11074 2660.9C10977.3 2726.33 10850.8 2759.04 10694.6 2759.04C10343 2759.04 10167.2 2633.07 10167.2 2381.11ZM10769.3 2403.09V971.934C10769.3 929.941 10744.4 908.945 10694.6 908.945C10642.8 908.945 10617 929.941 10617 971.934V2403.09C10617 2445.08 10642.8 2466.07 10694.6 2466.07C10744.4 2466.07 10769.3 2445.08 10769.3 2403.09ZM12279.6 913.34H12021.7V2740H11560.3V913.34H11302.5V639.414H12279.6V913.34ZM13271.3 2740H12368.9V639.414H13265.4V910.41H12830.3V1477.3H13222.9V1732.19H12830.3V2470.47H13271.3V2740Z" fill="white"/>
<path d="M4798.6 5170.12C4701.25 5170.12 4620.13 5150.21 4555.24 5110.39C4491.82 5069.09 4443.89 5012.31 4411.44 4940.04C4378.99 4866.3 4359.08 4780.75 4351.71 4683.41L4499.93 4639.16C4507.31 4712.91 4520.58 4780.02 4539.75 4840.49C4558.93 4899.48 4589.16 4946.68 4630.46 4982.08C4671.76 5016 4728.54 5032.96 4800.81 5032.96C4880.45 5032.96 4942.4 5012.31 4986.64 4971.01C5030.89 4929.72 5053.01 4864.08 5053.01 4774.12C5053.01 4694.47 5033.1 4625.89 4993.28 4568.37C4954.93 4510.85 4901.84 4450.38 4833.99 4386.96L4517.63 4083.87C4461.58 4029.3 4420.29 3973.25 4393.74 3915.73C4367.19 3856.74 4353.92 3792.58 4353.92 3723.26C4353.92 3599.37 4390.79 3504.24 4464.53 3437.87C4538.28 3371.5 4636.36 3338.32 4758.77 3338.32C4822.19 3338.32 4878.98 3346.43 4929.12 3362.65C4980.74 3378.88 5024.25 3405.42 5059.65 3442.3C5096.52 3477.69 5125.28 3524.15 5145.93 3581.67C5166.58 3639.19 5180.59 3709.25 5187.97 3791.84L5044.16 3829.45C5038.26 3754.23 5025.73 3690.08 5006.55 3636.98C4988.86 3582.41 4960.1 3541.11 4920.27 3513.09C4881.93 3485.07 4828.09 3471.06 4758.77 3471.06C4685.03 3471.06 4624.56 3490.23 4577.36 3528.58C4530.17 3566.92 4506.57 3626.66 4506.57 3707.78C4506.57 3756.45 4515.42 3800.69 4533.12 3840.51C4552.29 3880.34 4585.47 3923.11 4632.67 3968.83L4949.03 4267.49C5019.83 4333.86 5081.04 4407.61 5132.66 4488.73C5184.28 4569.85 5210.09 4661.29 5210.09 4763.06C5210.09 4853.02 5192.39 4928.24 5156.99 4988.71C5123.07 5049.18 5075.14 5094.9 5013.19 5125.88C4951.25 5155.37 4879.71 5170.12 4798.6 5170.12ZM5860.43 5170.12C5740.96 5170.12 5647.31 5147.26 5579.46 5101.54C5513.09 5054.34 5465.89 4989.45 5437.87 4906.86C5411.32 4822.79 5398.05 4726.92 5398.05 4619.25V3875.91C5398.05 3766.77 5412.06 3672.38 5440.08 3592.73C5469.58 3511.62 5517.52 3448.93 5583.89 3404.69C5651.73 3360.44 5743.91 3338.32 5860.43 3338.32C5975.47 3338.32 6066.17 3360.44 6132.54 3404.69C6200.39 3448.93 6248.32 3511.62 6276.34 3592.73C6304.37 3672.38 6318.38 3766.77 6318.38 3875.91V4621.47C6318.38 4729.13 6304.37 4824.26 6276.34 4906.86C6249.8 4987.98 6203.34 5052.13 6136.97 5099.33C6070.6 5146.53 5978.42 5170.12 5860.43 5170.12ZM5860.43 5035.17C5938.59 5035.17 5998.33 5019.69 6039.62 4988.71C6080.92 4956.26 6108.94 4912.02 6123.69 4855.97C6139.92 4798.45 6148.03 4732.08 6148.03 4656.86V3844.94C6148.03 3769.72 6139.92 3704.09 6123.69 3648.04C6108.94 3592 6080.92 3549.23 6039.62 3519.73C5998.33 3488.75 5938.59 3473.27 5860.43 3473.27C5780.78 3473.27 5719.57 3488.75 5676.8 3519.73C5635.51 3549.23 5606.75 3592 5590.52 3648.04C5575.77 3704.09 5568.4 3769.72 5568.4 3844.94V4656.86C5568.4 4732.08 5575.77 4798.45 5590.52 4855.97C5606.75 4912.02 5635.51 4956.26 5676.8 4988.71C5719.57 5019.69 5780.78 5035.17 5860.43 5035.17ZM6598 5148V3356.02H6766.13V5021.9H7274.97V5148H6598ZM7867.82 5170.12C7746.88 5170.12 7652.49 5148.74 7584.64 5105.97C7518.27 5061.72 7472.55 5001.25 7447.48 4924.55C7422.4 4846.39 7409.87 4757.89 7409.87 4659.08V3356.02H7573.58V4663.5C7573.58 4732.82 7580.95 4796.24 7595.7 4853.76C7611.93 4909.81 7641.42 4954.05 7684.2 4986.5C7726.97 5018.95 7788.18 5035.17 7867.82 5035.17C7944.51 5035.17 8004.25 5018.95 8047.02 4986.5C8089.79 4952.58 8119.29 4907.59 8135.51 4851.55C8153.21 4795.5 8162.06 4732.82 8162.06 4663.5V3356.02H8323.56V4659.08C8323.56 4757.89 8310.28 4846.39 8283.74 4924.55C8257.19 5001.25 8210.73 5061.72 8144.36 5105.97C8077.99 5148.74 7985.81 5170.12 7867.82 5170.12ZM8839.27 5148V3486.54H8500.79V3356.02H9337.05V3486.54H9007.41V5148H8839.27ZM9538.51 5148V3356.02H9706.64V5148H9538.51ZM10449.3 5170.12C10329.8 5170.12 10236.2 5147.26 10168.3 5101.54C10101.9 5054.34 10054.7 4989.45 10026.7 4906.86C10000.2 4822.79 9986.9 4726.92 9986.9 4619.25V3875.91C9986.9 3766.77 10000.9 3672.38 10028.9 3592.73C10058.4 3511.62 10106.4 3448.93 10172.7 3404.69C10240.6 3360.44 10332.8 3338.32 10449.3 3338.32C10564.3 3338.32 10655 3360.44 10721.4 3404.69C10789.2 3448.93 10837.2 3511.62 10865.2 3592.73C10893.2 3672.38 10907.2 3766.77 10907.2 3875.91V4621.47C10907.2 4729.13 10893.2 4824.26 10865.2 4906.86C10838.6 4987.98 10792.2 5052.13 10725.8 5099.33C10659.4 5146.53 10567.3 5170.12 10449.3 5170.12ZM10449.3 5035.17C10527.4 5035.17 10587.2 5019.69 10628.5 4988.71C10669.8 4956.26 10697.8 4912.02 10712.5 4855.97C10728.8 4798.45 10736.9 4732.08 10736.9 4656.86V3844.94C10736.9 3769.72 10728.8 3704.09 10712.5 3648.04C10697.8 3592 10669.8 3549.23 10628.5 3519.73C10587.2 3488.75 10527.4 3473.27 10449.3 3473.27C10369.6 3473.27 10308.4 3488.75 10265.7 3519.73C10224.4 3549.23 10195.6 3592 10179.4 3648.04C10164.6 3704.09 10157.2 3769.72 10157.2 3844.94V4656.86C10157.2 4732.08 10164.6 4798.45 10179.4 4855.97C10195.6 4912.02 10224.4 4956.26 10265.7 4988.71C10308.4 5019.69 10369.6 5035.17 10449.3 5035.17ZM11186.8 5148V3356.02H11308.5L11879.3 4747.57V3356.02H12025.3V5148H11905.9L11332.9 3740.96V5148H11186.8ZM12716.7 5170.12C12619.4 5170.12 12538.3 5150.21 12473.4 5110.39C12410 5069.09 12362 5012.31 12329.6 4940.04C12297.1 4866.3 12277.2 4780.75 12269.8 4683.41L12418.1 4639.16C12425.4 4712.91 12438.7 4780.02 12457.9 4840.49C12477.1 4899.48 12507.3 4946.68 12548.6 4982.08C12589.9 5016 12646.7 5032.96 12719 5032.96C12798.6 5032.96 12860.5 5012.31 12904.8 4971.01C12949 4929.72 12971.2 4864.08 12971.2 4774.12C12971.2 4694.47 12951.2 4625.89 12911.4 4568.37C12873.1 4510.85 12820 4450.38 12752.1 4386.96L12435.8 4083.87C12379.7 4029.3 12338.4 3973.25 12311.9 3915.73C12285.3 3856.74 12272.1 3792.58 12272.1 3723.26C12272.1 3599.37 12308.9 3504.24 12382.7 3437.87C12456.4 3371.5 12554.5 3338.32 12676.9 3338.32C12740.3 3338.32 12797.1 3346.43 12847.3 3362.65C12898.9 3378.88 12942.4 3405.42 12977.8 3442.3C13014.7 3477.69 13043.4 3524.15 13064.1 3581.67C13084.7 3639.19 13098.7 3709.25 13106.1 3791.84L12962.3 3829.45C12956.4 3754.23 12943.9 3690.08 12924.7 3636.98C12907 3582.41 12878.2 3541.11 12838.4 3513.09C12800.1 3485.07 12746.2 3471.06 12676.9 3471.06C12603.2 3471.06 12542.7 3490.23 12495.5 3528.58C12448.3 3566.92 12424.7 3626.66 12424.7 3707.78C12424.7 3756.45 12433.6 3800.69 12451.3 3840.51C12470.4 3880.34 12503.6 3923.11 12550.8 3968.83L12867.2 4267.49C12938 4333.86 12999.2 4407.61 13050.8 4488.73C13102.4 4569.85 13128.2 4661.29 13128.2 4763.06C13128.2 4853.02 13110.5 4928.24 13075.1 4988.71C13041.2 5049.18 12993.3 5094.9 12931.3 5125.88C12869.4 5155.37 12797.9 5170.12 12716.7 5170.12Z" fill="white"/>
</svg>
