<svg width="1200" height="900" viewBox="0 0 1200 900" fill="none" xmlns="http://www.w3.org/2000/svg">
  <rect width="1200" height="900" fill="#17171C"/>
  <rect width="1200" height="900" fill="url(#paint0_radial_2_2)"/>
  <circle cx="787" cy="291" r="119" fill="url(#paint1_radial_2_2)"/>
  <path d="M666 474C666 397.232 728.232 335 805 335H830C906.768 335 969 397.232 969 474V900H666V474Z" fill="url(#paint2_linear_2_2)"/>
  <path d="M399 900C430 692 528 571 665 507V900H399Z" fill="url(#paint3_linear_2_2)" fill-opacity="0.86"/>
  <path d="M945 900C917 688 846 584 735 520V900H945Z" fill="url(#paint4_linear_2_2)" fill-opacity="0.72"/>
  <path d="M336 656C451 565 585 506 736 479" stroke="url(#paint5_linear_2_2)" stroke-width="18" stroke-linecap="round"/>
  <defs>
    <radialGradient id="paint0_radial_2_2" cx="0" cy="0" r="1" gradientUnits="userSpaceOnUse" gradientTransform="translate(854 138) rotate(128.262) scale(1008.62 1357.87)">
      <stop stop-color="#53404D"/>
      <stop offset="0.5" stop-color="#201E27"/>
      <stop offset="1" stop-color="#0C0D12"/>
    </radialGradient>
    <radialGradient id="paint1_radial_2_2" cx="0" cy="0" r="1" gradientUnits="userSpaceOnUse" gradientTransform="translate(797 239) rotate(90) scale(183 155)">
      <stop stop-color="#FFD9B7"/>
      <stop offset="1" stop-color="#A96F4F"/>
    </radialGradient>
    <linearGradient id="paint2_linear_2_2" x1="746" y1="335" x2="934" y2="897" gradientUnits="userSpaceOnUse">
      <stop stop-color="#F6E0D8"/>
      <stop offset="1" stop-color="#98706C"/>
    </linearGradient>
    <linearGradient id="paint3_linear_2_2" x1="532" y1="507" x2="532" y2="900" gradientUnits="userSpaceOnUse">
      <stop stop-color="#A35434" stop-opacity="0.9"/>
      <stop offset="1" stop-color="#16161C" stop-opacity="0"/>
    </linearGradient>
    <linearGradient id="paint4_linear_2_2" x1="840" y1="520" x2="840" y2="900" gradientUnits="userSpaceOnUse">
      <stop stop-color="#F1B17B"/>
      <stop offset="1" stop-color="#16161C" stop-opacity="0"/>
    </linearGradient>
    <linearGradient id="paint5_linear_2_2" x1="336" y1="656" x2="736" y2="479" gradientUnits="userSpaceOnUse">
      <stop stop-color="#F6B16A" stop-opacity="0"/>
      <stop offset="0.6" stop-color="#F6B16A" stop-opacity="0.9"/>
      <stop offset="1" stop-color="#FFF1D7" stop-opacity="0"/>
    </linearGradient>
  </defs>
</svg>
